<svg width="84" height="103" viewBox="0 0 84 103" fill="none" xmlns="http://www.w3.org/2000/svg">
<path d="M50.7078 97.3196L51.2103 100.363L51.7127 97.3196H53.0524V102.667H52.1179V100.264L51.7153 102.667H51.2103H50.7048L50.3023 100.264V102.667H49.3682V97.3196H50.7078Z" fill="white"/>
<path d="M41.7326 34.5644C43.3599 35.3191 44.97 36.1079 46.5624 36.9287C54.1908 34.0913 61.9887 31.7751 69.9995 30.181V32.0109C61.9873 33.6204 54.1439 35.9954 46.5257 38.8682C39.6434 41.463 32.8809 44.503 26.5152 48.125H22.9332C24.8083 47.0132 26.6708 45.933 28.6009 44.9088C24.0596 43.1485 19.4613 41.6833 14.7363 40.4566V38.6004C20.2178 40.0112 25.4838 41.7108 30.7256 43.8074C32.727 42.7942 34.7563 41.8319 36.8066 40.9148C29.6718 37.8777 22.3549 35.5625 14.7363 33.8755V32.0377C23.2152 33.8975 31.1768 36.4473 39.0631 39.9268C40.7888 39.1873 42.5287 38.4775 44.28 37.7968C34.8719 33.0923 25.0751 29.6675 14.7363 27.424V25.5901C16.7345 26.0189 18.7148 26.4781 20.691 26.9955V6.48692C23.3953 4.32273 26.102 2.16204 28.8083 0C31.5153 2.15637 34.2267 4.30882 36.9278 6.47207V25.0287H42.2743V21.0914H50.5041V17.0012L57.2741 11.6689L60.6794 14.3513L64.0441 17.0073V25.3524C66.0198 24.8914 68.0019 24.4875 69.9995 24.1256V25.9504C60.2924 27.7322 50.774 30.7439 41.7326 34.5644ZM52.3673 25.1716L55.5048 22.6643V23.5769L52.3673 27.1819V28.6496C53.69 28.2195 55.0096 27.8032 56.3424 27.4025V14.6952L52.3673 17.8716V18.944L55.5048 16.4369V17.3495L52.3673 20.9545V22.0578L55.5048 19.5507V20.4631L52.3673 24.0684V25.1716ZM35.0645 31.7015V7.34404L29.7412 3.0305V29.7329C31.5314 30.3562 33.303 31.0042 35.0645 31.7015ZM36.9278 26.827V32.4561C37.791 32.8135 38.6476 33.1818 39.5029 33.5563C43.1057 31.9875 46.7811 30.56 50.5041 29.2779V22.8899H44.1374V26.827H36.9278ZM22.5543 8.4021L27.0398 4.81766V5.76255L22.5543 10.6588V11.5706L27.0398 7.92891V8.8495L22.5543 13.7711V14.6297L27.0398 11.0453V11.9807L22.5543 16.8843V17.7433L27.0398 14.1588V15.0839L22.5543 20.0045V20.938L27.0398 17.2683V18.1715L22.5543 23.1108V23.9919L27.0398 20.3857V21.2853L22.5543 26.2266V27.0849L27.0398 23.5002V24.3986L23.9152 27.8854C25.2427 28.271 26.5648 28.6787 27.8779 29.1078V3.0756L22.5543 7.33V8.4021ZM58.2057 14.6952V26.8615C59.5248 26.4885 60.8504 26.1339 62.1812 25.8024V17.8716L58.2057 14.6952ZM53.4412 48.125C58.8588 46.0256 64.3422 44.2571 69.9995 42.8597V44.7122C66.1314 45.678 62.3296 46.8182 58.5709 48.125H53.4412ZM37.3466 48.125C47.8297 43.1131 58.5297 39.2903 69.9995 36.9865V38.8185C60.1489 40.7971 50.655 43.9755 41.565 48.125H37.3466Z" fill="white"/>
<path d="M0 69.7528V53.6281H4.15783C4.84957 53.6281 5.44474 53.7121 5.95104 53.8789C6.47564 54.0521 6.90368 54.3137 7.24312 54.6634C7.58061 55.011 7.82292 55.4371 7.9793 55.9415C8.13008 56.4274 8.20065 56.9854 8.20065 57.6152V58.3502C8.20065 58.7986 8.16642 59.2089 8.09081 59.5818C8.0127 59.9651 7.88972 60.3102 7.71378 60.6165C7.57208 60.8635 7.3981 61.0822 7.18848 61.2725C7.1316 61.3242 7.07207 61.3739 7.01003 61.4212C7.10911 61.4884 7.20329 61.5601 7.29189 61.6363C7.53589 61.8461 7.73963 62.0894 7.90509 62.3624C8.10716 62.6956 8.25138 63.0701 8.34389 63.4801C8.43459 63.8818 8.47637 64.3191 8.47637 64.7865V66.1006C8.47637 66.7566 8.38875 67.3474 8.21058 67.8663C8.03031 68.3922 7.75822 68.8405 7.39195 69.2042C7.02861 69.5653 6.57794 69.8399 6.03894 70.0226C5.52188 70.1977 4.92615 70.2878 4.2495 70.2878H0V69.7528ZM2.89482 56.2793V60.243H3.72169C4.02871 60.243 4.29255 60.221 4.50873 60.169C4.70046 60.1233 4.85446 60.054 4.96793 59.9556C5.07819 59.8586 5.16413 59.7213 5.22464 59.5354C5.29368 59.3224 5.32904 59.0494 5.32904 58.7063V57.7933C5.32904 57.4963 5.30486 57.242 5.25315 57.0315C5.2083 56.8453 5.14122 56.6967 5.04969 56.5855C4.96919 56.4885 4.86103 56.415 4.72268 56.3652C4.56435 56.3082 4.36158 56.2793 4.11214 56.2793H2.89482ZM2.89482 62.8941V67.6365H4.2495C4.50747 67.6365 4.72492 67.6063 4.90155 67.5455C5.05793 67.4916 5.18342 67.4123 5.27831 67.3077C5.38158 67.192 5.46054 67.0372 5.51476 66.8425C5.57499 66.627 5.60433 66.365 5.60433 66.0558V64.6751C5.60433 64.2985 5.56898 63.9913 5.49673 63.7465C5.43231 63.5274 5.33938 63.3613 5.21752 63.242C5.09804 63.1252 4.93719 63.0416 4.7361 62.9854C4.50915 62.9224 4.23176 62.8941 3.90503 62.8941H2.89482ZM14.3444 69.7528V53.6281H17.2394V70.2878H14.3444V69.7528ZM26.2658 67.6365H31.4693V70.2878H23.0611V68.0868L28.2898 56.2793H23.3139V53.6281H31.515V55.831L26.2658 67.6365ZM43.082 69.9135L40.0484 60.6133V70.2878H37.3366V53.6281H40.5638L43.3316 62.0117V53.6281H46.0201V70.2878H43.2033L43.082 69.9135ZM52.0947 69.7528V53.6281H54.9896V70.2878H52.0947V69.7528ZM66.7862 69.9135L63.7529 60.6133V70.2878H61.0412V53.6281H64.268L67.0359 62.0117V53.6281H69.7245V70.2878H66.9081L66.7862 69.9135ZM76.7384 54.6644C77.0966 54.2754 77.5417 53.9716 78.0758 53.7677C78.5797 53.5748 79.1605 53.4724 79.8191 53.4724C80.4821 53.4724 81.0665 53.5748 81.5738 53.7667C82.1097 53.97 82.5564 54.2725 82.9159 54.6606C83.2826 55.0585 83.5539 55.5379 83.7328 56.0856C83.912 56.6347 84 57.2537 84 57.9272V59.798H81.1966V57.8378C81.1966 57.5236 81.1653 57.2468 81.1004 57.0128C81.0419 56.8013 80.9576 56.6262 80.8457 56.4927C80.7476 56.3754 80.6211 56.2843 80.4657 56.2228C80.3039 56.1572 80.1041 56.1236 79.8652 56.1236C79.6317 56.1236 79.4343 56.1578 79.272 56.2228C79.1173 56.2847 78.9899 56.3776 78.8894 56.4975C78.7766 56.6319 78.6905 56.8079 78.631 57.0206C78.566 57.2537 78.5336 57.5276 78.5336 57.8378V66.0779C78.5336 66.3881 78.566 66.6625 78.631 66.8955C78.6905 67.1082 78.7766 67.2842 78.8894 67.4187C78.9899 67.5386 79.117 67.6311 79.272 67.6933C79.4343 67.7582 79.6317 67.7925 79.8652 67.7925C80.1041 67.7925 80.3039 67.7589 80.4657 67.6945C80.6211 67.6318 80.7476 67.5405 80.8457 67.4234C80.9576 67.2897 81.0423 67.1149 81.1004 66.9034C81.1653 66.6694 81.1966 66.3923 81.1966 66.0779V63.4953H79.5431V60.8664H84V65.9892C84 66.663 83.912 67.2823 83.7328 67.8315C83.5532 68.3804 83.2821 68.8602 82.9159 69.2556C82.5564 69.6433 82.1097 69.9462 81.5738 70.1492C81.0665 70.3413 80.4821 70.4433 79.8191 70.4433C79.1605 70.4433 78.58 70.341 78.0754 70.1485C77.542 69.9446 77.0966 69.6408 76.7384 69.2518C76.3761 68.8576 76.1064 68.3782 75.9278 67.8287C75.7489 67.2804 75.6613 66.662 75.6613 65.9892V57.9272C75.6613 57.2544 75.7489 56.6357 75.9275 56.0875C76.1064 55.5379 76.3761 55.0588 76.7384 54.6644ZM9.75113 75.4912H12.0719V87.941C12.0719 88.2552 12.1032 88.532 12.1676 88.766C12.2261 88.9776 12.3108 89.1526 12.4228 89.2865C12.5214 89.4048 12.6478 89.4961 12.8025 89.5576C12.9669 89.6213 13.1668 89.6553 13.4032 89.6553C13.6338 89.6553 13.8286 89.6213 13.9882 89.5572C14.1409 89.4957 14.2659 89.4041 14.3634 89.2865C14.4749 89.1517 14.5589 88.9766 14.6168 88.7658C14.6809 88.5325 14.7119 88.2559 14.7119 87.941V75.4912H17.4924V87.852C17.4924 88.527 17.4051 89.1495 17.2269 89.7025C17.0496 90.2523 16.7811 90.734 16.4171 91.1319C16.0587 91.5238 15.6145 91.8292 15.0821 92.0331C14.5782 92.2259 13.9964 92.3289 13.3345 92.3289C12.6791 92.3289 12.1007 92.2255 11.5976 92.0312C11.0649 91.8254 10.6224 91.5204 10.2682 91.1303C9.90722 90.7314 9.63961 90.2501 9.46339 89.7008C9.28605 89.1479 9.19913 88.5264 9.19913 87.852V75.4912H9.75113ZM28.6663 92.1507H26.346V86.1105L22.7361 75.4912H25.7635L27.866 81.9275L29.9887 75.4912H32.851L29.2183 86.1051V92.1507H28.6663ZM45.6529 90.0344V92.1507H38.1637V75.4912H41.0589V89.4995H45.6529V90.0344ZM57.756 91.7159L57.2217 89.0106H54.0661L53.446 92.1507H50.6705L51.3626 88.6564C52.2235 84.3085 53.0846 79.9612 53.9026 75.7803L53.9592 75.4912H57.4654L59.1005 83.7538C59.5998 86.2823 60.1183 88.9122 60.6713 91.7312L60.7537 92.1507H57.8414L57.756 91.7159ZM56.7543 86.4481L55.616 80.803L54.5063 86.4481H56.7543ZM66.2782 91.6158V75.4912H70.413C71.1122 75.4912 71.7175 75.5811 72.2346 75.7576C72.766 75.9389 73.2036 76.2131 73.5535 76.5753C73.9002 76.9335 74.1509 77.3721 74.3141 77.8867C74.4725 78.3864 74.5481 78.955 74.5481 79.5895V80.8591C74.5481 81.3268 74.5039 81.7569 74.4132 82.1487C74.3207 82.5489 74.1797 82.906 73.9884 83.2186C73.8331 83.4727 73.6457 83.6968 73.4259 83.8908C73.3602 83.9489 73.2912 84.0043 73.2197 84.057C73.3059 84.1191 73.388 84.1848 73.4655 84.2542C73.6948 84.4616 73.8851 84.6975 74.0388 84.9611C74.2275 85.2857 74.3617 85.6491 74.4476 86.0477C74.532 86.4396 74.5713 86.8638 74.5713 87.3171V89.745C74.5713 89.9282 74.5725 90.0992 74.5778 90.232C74.5837 90.3845 74.5947 90.531 74.6138 90.6703C74.6314 90.8 74.6565 90.9249 74.6919 91.0428C74.7253 91.1537 74.7692 91.2613 74.8258 91.3628L75.2652 92.1507H72.1714L72.0243 91.833C71.9628 91.7007 71.9101 91.5727 71.8667 91.4376C71.8225 91.3003 71.7856 91.1522 71.7564 90.9803C71.729 90.8192 71.709 90.6398 71.6956 90.4314C71.6825 90.2194 71.676 89.9869 71.676 89.7228V87.2729C71.676 86.8965 71.6341 86.5922 71.5533 86.3508C71.4801 86.1327 71.3752 85.9666 71.241 85.8454C71.106 85.7239 70.9301 85.6377 70.7178 85.581C70.4853 85.519 70.2059 85.4915 69.8848 85.4915H69.1735V92.1507H66.2782V91.6158ZM69.1735 78.1423V82.8403H69.9541C70.2642 82.8403 70.5363 82.8185 70.7629 82.7648C70.9677 82.7166 71.1373 82.6428 71.2669 82.5356C71.3911 82.4329 71.4892 82.2888 71.5575 82.0952C71.6351 81.875 71.676 81.5929 71.676 81.2371V79.7452C71.676 79.4428 71.6495 79.1814 71.5936 78.9642C71.5429 78.7661 71.4687 78.6059 71.3679 78.4851C71.278 78.3767 71.1583 78.2936 71.0075 78.2371C70.8394 78.174 70.6268 78.1423 70.3672 78.1423H69.1735Z" fill="white"/>
<path d="M19.4321 102.61H18.0527V97.377H19.4321C19.8617 97.377 20.1858 97.4963 20.4058 97.7239C20.6284 97.9546 20.7387 98.2915 20.7387 98.7246V101.262C20.7387 101.695 20.6284 102.032 20.4058 102.263C20.1858 102.491 19.8617 102.61 19.4321 102.61ZM19.6364 98.3816C19.5894 98.3303 19.5144 98.3085 19.4177 98.3085H19.0744V101.678H19.4177C19.5144 101.678 19.5894 101.656 19.6368 101.605C19.6887 101.548 19.717 101.449 19.717 101.298V98.6887C19.717 98.538 19.6883 98.4389 19.6364 98.3816ZM25.0276 98.3085H23.75V99.4916H24.8522V100.423H23.75V101.678H25.1372V102.61H22.7284V97.377H25.1372V98.3085H25.0276ZM27.0094 97.377H27.9142L28.4327 100.84L28.9517 97.377H29.9107C29.6375 99.1214 29.3653 100.866 29.0888 102.61H27.7043L26.8818 97.377H27.0094ZM34.0433 98.3085H32.7654V99.4916H33.8677V100.423H32.7654V101.678H34.1526V102.61H31.7438V97.377H34.1526V98.3085H34.0433ZM38.3607 102.61H36.1272V97.377H37.1489V101.678H38.4701V102.61H38.3607ZM41.3392 98.3288C41.2853 98.3874 41.2549 98.4876 41.2549 98.6383V101.348C41.2549 101.499 41.2853 101.599 41.3392 101.658C41.3884 101.712 41.4654 101.735 41.5618 101.735C41.659 101.735 41.7357 101.712 41.7843 101.659C41.8382 101.599 41.8686 101.499 41.8686 101.348V98.6383C41.8686 98.4876 41.8382 98.3874 41.7843 98.3288C41.7357 98.2745 41.659 98.2511 41.5618 98.2511C41.4654 98.2511 41.3884 98.2745 41.3392 98.3288ZM40.5803 102.306C40.3524 102.071 40.2333 101.729 40.2333 101.298V98.6887C40.2333 98.2575 40.3524 97.9158 40.5803 97.6805C40.8075 97.4453 41.138 97.3196 41.5618 97.3196C41.9857 97.3196 42.3163 97.4453 42.5435 97.6802C42.771 97.9158 42.8902 98.2575 42.8902 98.6887V101.298C42.8902 101.729 42.771 102.071 42.5435 102.307C42.3163 102.541 41.9857 102.667 41.5618 102.667C41.138 102.667 40.8075 102.541 40.5803 102.306ZM44.9967 97.377H46.1792C46.6088 97.377 46.9325 97.4963 47.1526 97.7239C47.3752 97.9546 47.4858 98.2915 47.4858 98.7246V99.3768C47.4858 99.8099 47.3752 100.147 47.1526 100.377C46.9325 100.605 46.6088 100.724 46.1792 100.724H45.9089V102.61H44.8874V97.377H44.9967ZM46.3904 98.3748C46.3473 98.3274 46.2756 98.3085 46.1792 98.3085H45.9089V99.7929H46.1792C46.2756 99.7929 46.3473 99.7743 46.3904 99.7269C46.4388 99.6736 46.4639 99.5782 46.4639 99.4271V98.6746C46.4639 98.5235 46.4388 98.4278 46.3904 98.3748ZM57.3188 98.3085H56.0412V99.4916H57.1435V100.423H56.0412V101.678H57.4282V102.61H55.0196V97.377H57.4282V98.3085H57.3188ZM62.0527 102.61H61.1441L60.3377 99.6772V102.61H59.396V97.377H60.5961L61.228 99.6775V97.377H62.1622V102.61H62.0527ZM64.8232 98.3085H63.9837V97.377H66.6843V98.3085H65.8448V102.61H64.8232V98.3085Z" fill="white"/>
</svg>
